ffmpeg version N-55863-g9f38fac053-static https://johnvansickle.com/ffmpeg/  Copyright (c) 2000-2021 the FFmpeg developers
  built with gcc 8 (Debian 8.3.0-6)
  configuration: --enable-gpl --enable-version3 --enable-static --disable-debug --disable-ffplay --disable-indev=sndio --disable-outdev=sndio --cc=gcc --enable-fontconfig --enable-frei0r --enable-gnutls --enable-gmp --enable-libgme --enable-gray --enable-libaom --enable-libfribidi --enable-libass --enable-libvmaf --enable-libfreetype --enable-libmp3lame --enable-libopencore-amrnb --enable-libopencore-amrwb --enable-libopenjpeg --enable-librubberband --enable-libsoxr --enable-libspeex --enable-libsrt --enable-libvorbis --enable-libopus --enable-libtheora --enable-libvidstab --enable-libvo-amrwbenc --enable-libvpx --enable-libwebp --enable-libx264 --enable-libx265 --enable-libxml2 --enable-libdav1d --enable-libxvid --enable-libzvbi --enable-libzimg
  libavutil      56. 64.100 / 56. 64.100
  libavcodec     58.119.100 / 58.119.100
  libavformat    58. 65.101 / 58. 65.101
  libavdevice    58. 11.103 / 58. 11.103
  libavfilter     7.100.100 /  7.100.100
  libswscale      5.  8.100 /  5.  8.100
  libswresample   3.  8.100 /  3.  8.100
  libpostproc    55.  8.100 / 55.  8.100
Input #0, mov,mp4,m4a,3gp,3g2,mj2, from '/home/yiaapc5/public_html/f_data/data_userfiles/user_uploads/1134370236/v/1613162326.mp4':
  Metadata:
    major_brand     : mp42
    minor_version   : 0
    compatible_brands: isommp42
    creation_time   : 2020-06-25T00:28:15.000000Z
  Duration: 00:13:31.28, start: 0.000000, bitrate: 1149 kb/s
    Stream #0:0(und): Video: h264 (Main) (avc1 / 0x31637661), yuv420p(tv, bt709), 1280x720 [SAR 1:1 DAR 16:9], 1018 kb/s, 25 fps, 25 tbr, 12800 tbn, 50 tbc (default)
    Metadata:
      creation_time   : 2020-06-25T00:28:15.000000Z
      handler_name    : ISO Media file produced by Google Inc. Created on: 06/24/2020.
      vendor_id       : [0][0][0][0]
    Stream #0:1(und): Audio: aac (LC) (mp4a / 0x6134706D), 44100 Hz, stereo, fltp, 128 kb/s (default)
    Metadata:
      creation_time   : 2020-06-25T00:28:15.000000Z
      handler_name    : ISO Media file produced by Google Inc. Created on: 06/24/2020.
      vendor_id       : [0][0][0][0]
Codec AVOption rc_eq (Set rate control equation. When computing the expression, besides the standard functions defined in the section 'Expression Evaluation', the following functions are available: bits2qp(bits), qp2bits(qp). Also the following constants are available: iTex pTex tex mv fCode iCount mcVar var isI isP isB avgQP qComp avgIITex avgPITex avgPPTex avgBPTex avgTex.) specified for output file #0 (/home/yiaapc5/public_html/f_data/data_userfiles/user_media/1134370236/v/45be803bbb35cd1a664c10c55f6132cb.mob.nomob.mp4) has not been used for any stream. The most likely reason is either wrong type (e.g. a video option with no video streams) or that it is a private option of some encoder which was not actually used for any stream.
Stream mapping:
  Stream #0:0 -> #0:0 (h264 (native) -> h264 (libx264))
  Stream #0:1 -> #0:1 (aac (native) -> aac (native))
Press [q] to stop, [?] for help
[libx264 @ 0x7529780] Application has requested 32 threads. Using a thread count greater than 16 is not recommended.
[libx264 @ 0x7529780] using SAR=136/135
[libx264 @ 0x7529780] frame MB size (30x17) > level limit (396)
[libx264 @ 0x7529780] VBV bitrate (10000) > level limit (768)
[libx264 @ 0x7529780] VBV buffer (10000) > level limit (2000)
[libx264 @ 0x7529780] MB rate (12750) > level limit (11880)
[libx264 @ 0x7529780] using cpu capabilities: MMX2 SSE2Fast SSSE3 SSE4.2 AVX
[libx264 @ 0x7529780] profile Constrained Baseline, level 1.3, 4:2:0, 8-bit
[libx264 @ 0x7529780] 264 - core 161 r3040 35417dc - H.264/MPEG-4 AVC codec - Copyleft 2003-2021 - http://www.videolan.org/x264.html - options: cabac=0 ref=1 deblock=1:0:0 analyse=0x1:0 me=hex subme=1 psy=1 psy_rd=1.00:0.00 mixed_ref=0 me_range=16 chroma_me=1 trellis=0 8x8dct=0 cqm=0 deadzone=21,11 fast_pskip=1 chroma_qp_offset=0 threads=32 lookahead_threads=2 sliced_threads=0 nr=0 decimate=1 interlaced=0 bluray_compat=0 constrained_intra=0 bframes=0 weightp=0 keyint=300 keyint_min=25 scenecut=40 intra_refresh=0 rc_lookahead=30 rc=abr mbtree=1 bitrate=1000 ratetol=1.0 qcomp=0.60 qpmin=10 qpmax=51 qpstep=4 vbv_maxrate=10000 vbv_bufsize=10000 nal_hrd=none filler=0 ip_ratio=1.41 aq=1:1.00
Output #0, mp4, to '/home/yiaapc5/public_html/f_data/data_userfiles/user_media/1134370236/v/45be803bbb35cd1a664c10c55f6132cb.mob.nomob.mp4':
  Metadata:
    major_brand     : mp42
    minor_version   : 0
    compatible_brands: isommp42
    encoder         : Lavf58.65.101
    Stream #0:0(und): Video: h264 (avc1 / 0x31637661), yuv420p(tv, bt709, progressive), 480x272 [SAR 136:135 DAR 16:9], q=2-31, 1000 kb/s, 25 fps, 12800 tbn (default)
    Metadata:
      creation_time   : 2020-06-25T00:28:15.000000Z
      handler_name    : ISO Media file produced by Google Inc. Created on: 06/24/2020.
      vendor_id       : [0][0][0][0]
      encoder         : Lavc58.119.100 libx264
    Side data:
      cpb: bitrate max/min/avg: 10000000/0/1000000 buffer size: 10000000 vbv_delay: N/A
    Stream #0:1(und): Audio: aac (LC) (mp4a / 0x6134706D), 44100 Hz, stereo, fltp, 128 kb/s (default)
    Metadata:
      creation_time   : 2020-06-25T00:28:15.000000Z
      handler_name    : ISO Media file produced by Google Inc. Created on: 06/24/2020.
      vendor_id       : [0][0][0][0]
      encoder         : Lavc58.119.100 aac
frame=    1 fps=0.0 q=0.0 size=       0kB time=00:00:00.41 bitrate=   0.9kbits/s speed=9.44x    frame=  188 fps=0.0 q=27.0 size=     512kB time=00:00:07.56 bitrate= 554.1kbits/s speed=13.9x    frame=  388 fps=371 q=31.0 size=    2048kB time=00:00:15.92 bitrate=1053.3kbits/s speed=15.2x    frame=  605 fps=391 q=28.0 size=    2816kB time=00:00:24.33 bitrate= 948.0kbits/s speed=15.7x    frame=  821 fps=401 q=32.0 size=    4352kB time=00:00:33.11 bitrate=1076.7kbits/s speed=16.2x    frame= 1035 fps=406 q=31.0 size=    5376kB time=00:00:41.91 bitrate=1050.8kbits/s speed=16.5x    frame= 1252 fps=411 q=27.0 size=    6144kB time=00:00:50.29 bitrate=1000.7kbits/s speed=16.5x    frame= 1464 fps=413 q=27.0 size=    7168kB time=00:00:59.07 bitrate= 994.1kbits/s speed=16.7x    frame= 1673 fps=413 q=27.0 size=    8448kB time=00:01:07.05 bitrate=1032.0kbits/s speed=16.6x    frame= 1871 fps=411 q=24.0 size=    9472kB time=00:01:14.90 bitrate=1035.9kbits/s speed=16.5x    frame= 2076 fps=411 q=27.0 size=   10752kB time=00:01:23.26 bitrate=1057.8kbits/s speed=16.5x    frame= 2271 fps=409 q=26.0 size=   11520kB time=00:01:31.16 bitrate=1035.2kbits/s speed=16.4x    frame= 2463 fps=407 q=25.0 size=   12544kB time=00:01:38.89 bitrate=1039.1kbits/s speed=16.3x    frame= 2660 fps=406 q=26.0 size=   13824kB time=00:01:46.50 bitrate=1063.2kbits/s speed=16.3x    frame= 2851 fps=404 q=26.0 size=   14848kB time=00:01:54.38 bitrate=1063.4kbits/s speed=16.2x    frame= 3044 fps=403 q=26.0 size=   15872kB time=00:02:01.81 bitrate=1067.4kbits/s speed=16.1x    frame= 3232 fps=401 q=26.0 size=   16896kB time=00:02:09.70 bitrate=1067.1kbits/s speed=16.1x    frame= 3420 fps=400 q=26.0 size=   18176kB time=00:02:17.13 bitrate=1085.8kbits/s speed=  16x    frame= 3607 fps=398 q=27.0 size=   19200kB time=00:02:24.56 bitrate=1088.0kbits/s speed=  16x    frame= 3799 fps=397 q=27.0 size=   20224kB time=00:02:32.46 bitrate=1086.7kbits/s speed=15.9x    frame= 3991 fps=397 q=26.0 size=   21248kB time=00:02:39.89 bitrate=1088.6kbits/s speed=15.9x    frame= 4181 fps=396 q=25.0 size=   22016kB time=00:02:47.48 bitrate=1076.8kbits/s speed=15.9x    frame= 4365 fps=395 q=27.0 size=   23296kB time=00:02:54.75 bitrate=1092.1kbits/s speed=15.8x    frame= 4552 fps=394 q=28.0 size=   24832kB time=00:03:02.20 bitrate=1116.4kbits/s speed=15.8x    frame= 4740 fps=393 q=28.0 size=   25856kB time=00:03:10.07 bitrate=1114.3kbits/s speed=15.8x    frame= 4929 fps=392 q=27.0 size=   26624kB time=00:03:17.50 bitrate=1104.3kbits/s speed=15.7x    frame= 5122 fps=392 q=28.0 size=   27904kB time=00:03:24.93 bitrate=1115.4kbits/s speed=15.7x    frame= 5308 fps=391 q=28.0 size=   29184kB time=00:03:32.48 bitrate=1125.1kbits/s speed=15.7x    frame= 5494 fps=391 q=28.0 size=   29952kB time=00:03:40.10 bitrate=1114.8kbits/s speed=15.6x    frame= 5679 fps=390 q=27.0 size=   30720kB time=00:03:47.23 bitrate=1107.5kbits/s speed=15.6x    frame= 5869 fps=389 q=27.0 size=   31744kB time=00:03:55.12 bitrate=1106.0kbits/s speed=15.6x    frame= 6063 fps=389 q=28.0 size=   33024kB time=00:04:02.62 bitrate=1115.0kbits/s speed=15.6x    frame= 6257 fps=389 q=27.0 size=   34048kB time=00:04:10.45 bitrate=1113.7kbits/s speed=15.6x    frame= 6450 fps=389 q=27.0 size=   34816kB time=00:04:18.34 bitrate=1104.0kbits/s speed=15.6x    frame= 6638 fps=389 q=27.0 size=   36096kB time=00:04:25.77 bitrate=1112.6kbits/s speed=15.6x    frame= 6821 fps=388 q=29.0 size=   37632kB time=00:04:33.20 bitrate=1128.4kbits/s speed=15.5x    frame= 7012 fps=388 q=29.0 size=   38912kB time=00:04:40.63 bitrate=1135.9kbits/s speed=15.5x    frame= 7200 fps=388 q=29.0 size=   40192kB time=00:04:48.08 bitrate=1142.9kbits/s speed=15.5x    frame= 7385 fps=387 q=29.0 size=   40960kB time=00:04:55.68 bitrate=1134.8kbits/s speed=15.5x    frame= 7576 fps=387 q=29.0 size=   41728kB time=00:05:03.39 bitrate=1126.7kbits/s speed=15.5x    frame= 7767 fps=387 q=29.0 size=   43008kB time=00:05:10.82 bitrate=1133.5kbits/s speed=15.5x    frame= 7957 fps=387 q=29.0 size=   44032kB time=00:05:18.71 bitrate=1131.8kbits/s speed=15.5x    frame= 8152 fps=387 q=28.0 size=   44800kB time=00:05:26.51 bitrate=1124.0kbits/s speed=15.5x    frame= 8349 fps=387 q=28.0 size=   45824kB time=00:05:34.06 bitrate=1123.7kbits/s speed=15.5x    frame= 8536 fps=387 q=28.0 size=   46592kB time=00:05:41.93 bitrate=1116.2kbits/s speed=15.5x    frame= 8728 fps=387 q=28.0 size=   47872kB time=00:05:49.36 bitrate=1122.5kbits/s speed=15.5x    frame= 8925 fps=387 q=28.0 size=   48896kB time=00:05:57.26 bitrate=1121.2kbits/s speed=15.5x    frame= 9121 fps=387 q=24.0 size=   49664kB time=00:06:05.15 bitrate=1114.2kbits/s speed=15.5x    frame= 9304 fps=386 q=27.0 size=   50688kB time=00:06:12.58 bitrate=1114.5kbits/s speed=15.5x    frame= 9498 fps=386 q=27.0 size=   51712kB time=00:06:20.36 bitrate=1113.7kbits/s speed=15.5x    frame= 9688 fps=386 q=28.0 size=   52992kB time=00:06:27.91 bitrate=1119.1kbits/s speed=15.5x    frame= 9881 fps=386 q=27.0 size=   53760kB time=00:06:35.34 bitrate=1114.0kbits/s speed=15.5x    frame=10076 fps=386 q=27.0 size=   55040kB time=00:06:43.23 bitrate=1118.2kbits/s speed=15.5x    frame=10270 fps=386 q=26.0 size=   55552kB time=00:06:51.13 bitrate=1106.9kbits/s speed=15.5x    frame=10462 fps=386 q=28.0 size=   57088kB time=00:06:58.56 bitrate=1117.3kbits/s speed=15.5x    frame=10653 fps=386 q=28.0 size=   58624kB time=00:07:06.45 bitrate=1126.1kbits/s speed=15.5x    frame=10852 fps=386 q=28.0 size=   59392kB time=00:07:14.35 bitrate=1120.1kbits/s speed=15.5x    frame=11042 fps=386 q=28.0 size=   60416kB time=00:07:22.01 bitrate=1119.7kbits/s speed=15.5x    frame=11239 fps=386 q=27.0 size=   61184kB time=00:07:29.67 bitrate=1114.6kbits/s speed=15.5x    frame=11437 fps=386 q=28.0 size=   62720kB time=00:07:37.80 bitrate=1122.3kbits/s speed=15.5x    frame=11630 fps=386 q=28.0 size=   63744kB time=00:07:45.46 bitrate=1121.9kbits/s speed=15.5x    frame=11830 fps=387 q=28.0 size=   64768kB time=00:07:53.36 bitrate=1120.9kbits/s speed=15.5x    frame=12021 fps=387 q=28.0 size=   66048kB time=00:08:01.25 bitrate=1124.3kbits/s speed=15.5x    frame=12215 fps=387 q=29.0 size=   67328kB time=00:08:08.68 bitrate=1128.6kbits/s speed=15.5x    frame=12407 fps=387 q=29.0 size=   68608kB time=00:08:16.58 bitrate=1131.8kbits/s speed=15.5x    frame=12603 fps=387 q=28.0 size=   69376kB time=00:08:24.47 bitrate=1126.6kbits/s speed=15.5x    frame=12796 fps=387 q=28.0 size=   70400kB time=00:08:32.37 bitrate=1125.6kbits/s speed=15.5x    frame=12993 fps=387 q=28.0 size=   71424kB time=00:08:40.15 bitrate=1124.9kbits/s speed=15.5x    frame=13184 fps=387 q=28.0 size=   72192kB time=00:08:47.69 bitrate=1120.7kbits/s speed=15.5x    frame=13362 fps=386 q=28.0 size=   73216kB time=00:08:54.66 bitrate=1121.8kbits/s speed=15.5x    frame=13539 fps=386 q=27.0 size=   73728kB time=00:09:01.65 bitrate=1115.1kbits/s speed=15.4x    frame=13714 fps=385 q=27.0 size=   74752kB time=00:09:09.03 bitrate=1115.4kbits/s speed=15.4x    frame=13900 fps=385 q=27.0 size=   75520kB time=00:09:16.04 bitrate=1112.6kbits/s speed=15.4x    frame=14080 fps=385 q=27.0 size=   76544kB time=00:09:23.45 bitrate=1112.9kbits/s speed=15.4x    frame=14265 fps=384 q=27.0 size=   77568kB time=00:09:30.88 bitrate=1113.1kbits/s speed=15.4x    frame=14445 fps=384 q=27.0 size=   78848kB time=00:09:38.10 bitrate=1117.3kbits/s speed=15.4x    frame=14621 fps=384 q=28.0 size=   80384kB time=00:09:45.28 bitrate=1125.1kbits/s speed=15.4x    frame=14805 fps=383 q=28.0 size=   81408kB time=00:09:52.71 bitrate=1125.2kbits/s speed=15.4x    frame=14992 fps=383 q=28.0 size=   82176kB time=00:10:00.14 bitrate=1121.7kbits/s speed=15.3x    frame=15176 fps=383 q=28.0 size=   83456kB time=00:10:07.15 bitrate=1126.0kbits/s speed=15.3x    frame=15359 fps=383 q=28.0 size=   84224kB time=00:10:14.53 bitrate=1122.7kbits/s speed=15.3x    frame=15539 fps=383 q=27.0 size=   84992kB time=00:10:21.96 bitrate=1119.4kbits/s speed=15.3x    frame=15728 fps=382 q=27.0 size=   86016kB time=00:10:29.40 bitrate=1119.5kbits/s speed=15.3x    frame=15908 fps=382 q=27.0 size=   87040kB time=00:10:36.55 bitrate=1120.1kbits/s speed=15.3x    frame=16094 fps=382 q=27.0 size=   87808kB time=00:10:43.79 bitrate=1117.3kbits/s speed=15.3x    frame=16287 fps=382 q=28.0 size=   89600kB time=00:10:51.69 bitrate=1126.3kbits/s speed=15.3x    frame=16476 fps=382 q=28.0 size=   90624kB time=00:10:59.26 bitrate=1126.1kbits/s speed=15.3x    frame=16668 fps=382 q=28.0 size=   91392kB time=00:11:07.01 bitrate=1122.4kbits/s speed=15.3x    frame=16856 fps=382 q=27.0 size=   92160kB time=00:11:14.44 bitrate=1119.4kbits/s speed=15.3x    frame=17045 fps=382 q=28.0 size=   93440kB time=00:11:21.90 bitrate=1122.5kbits/s speed=15.3x    frame=17230 fps=382 q=28.0 size=   94976kB time=00:11:29.30 bitrate=1128.7kbits/s speed=15.3x    frame=17416 fps=382 q=28.0 size=   96000kB time=00:11:37.15 bitrate=1128.1kbits/s speed=15.3x    frame=17610 fps=382 q=28.0 size=   96768kB time=00:11:44.63 bitrate=1125.0kbits/s speed=15.3x    frame=17801 fps=382 q=27.0 size=   97536kB time=00:11:52.52 bitrate=1121.4kbits/s speed=15.3x    frame=17993 fps=382 q=27.0 size=   98304kB time=00:11:59.95 bitrate=1118.5kbits/s speed=15.3x    frame=18182 fps=382 q=28.0 size=  100096kB time=00:12:07.55 bitrate=1127.1kbits/s speed=15.3x    frame=18377 fps=382 q=28.0 size=  101120kB time=00:12:15.28 bitrate=1126.6kbits/s speed=15.3x    frame=18572 fps=382 q=28.0 size=  101888kB time=00:12:23.17 bitrate=1123.1kbits/s speed=15.3x    frame=18764 fps=382 q=27.0 size=  102656kB time=00:12:30.79 bitrate=1120.1kbits/s speed=15.3x    frame=18958 fps=382 q=27.0 size=  103424kB time=00:12:38.50 bitrate=1117.0kbits/s speed=15.3x    frame=19146 fps=382 q=27.0 size=  104704kB time=00:12:46.11 bitrate=1119.6kbits/s speed=15.3x    frame=19339 fps=382 q=27.0 size=  105728kB time=00:12:53.82 bitrate=1119.3kbits/s speed=15.3x    frame=19529 fps=382 q=27.0 size=  106752kB time=00:13:01.32 bitrate=1119.3kbits/s speed=15.3x    frame=19720 fps=382 q=27.0 size=  108032kB time=00:13:09.15 bitrate=1121.5kbits/s speed=15.3x    frame=19916 fps=382 q=27.0 size=  108800kB time=00:13:17.04 bitrate=1118.2kbits/s speed=15.3x    frame=20113 fps=382 q=26.0 size=  109568kB time=00:13:24.94 bitrate=1115.1kbits/s speed=15.3x    frame=20282 fps=382 q=-1.0 Lsize=  110889kB time=00:13:31.25 bitrate=1119.7kbits/s speed=15.3x    
video:97656kB audio:12725kB subtitle:0kB other streams:0kB global headers:0kB muxing overhead: 0.460271%
[libx264 @ 0x7529780] frame I:144   Avg QP:21.18  size: 17422
[libx264 @ 0x7529780] frame P:20138 Avg QP:24.04  size:  4841
[libx264 @ 0x7529780] mb I  I16..4: 13.6%  0.0% 86.4%
[libx264 @ 0x7529780] mb P  I16..4:  5.8%  0.0%  0.0%  P16..4: 71.8%  0.0%  0.0%  0.0%  0.0%    skip:22.4%
[libx264 @ 0x7529780] final ratefactor: 22.05
[libx264 @ 0x7529780] coded y,uvDC,uvAC intra: 52.5% 70.2% 39.7% inter: 34.0% 31.9% 11.6%
[libx264 @ 0x7529780] i16 v,h,dc,p: 23% 41% 20% 16%
[libx264 @ 0x7529780] i4 v,h,dc,ddl,ddr,vr,hd,vl,hu: 20% 27% 10%  8%  7%  6%  7%  6%  9%
[libx264 @ 0x7529780] i8c dc,h,v,p: 35% 35% 20% 11%
[libx264 @ 0x7529780] kb/s:986.08
[aac @ 0x7561000] Qavg: 239.689
